Coordinates
version=1
nRows=9
nColumns=36
inDegrees=yes

Units are S.I. units (second, meters, Newtons, ...)
If the header above contains a line with 'inDegrees', this indicates whether rotational values are in degrees (yes) or radians (no).

endheader
time	pelvis_tilt	pelvis_list	pelvis_rotation	pelvis_tx	pelvis_ty	pelvis_tz	hip_flexion_r	hip_adduction_r	hip_rotation_r	knee_angle_r	knee_angle_r_beta	ankle_angle_r	subtalar_angle_r	mtp_angle_r	hip_flexion_l	hip_adduction_l	hip_rotation_l	knee_angle_l	knee_angle_l_beta	ankle_angle_l	subtalar_angle_l	mtp_angle_l	lumbar_extension	lumbar_bending	lumbar_rotation	arm_flex_r	arm_add_r	arm_rot_r	elbow_flex_r	pro_sup_r	arm_flex_l	arm_add_l	arm_rot_l	elbow_flex_l	pro_sup_l
      5.55932200	     -0.45684281	     -0.14389475	     -0.73439537	      0.32736331	      0.94557236	      0.00137585	     -3.54961671	     -7.54294836	     -7.72080135	      3.30826665	      0.05774015	      1.38367680	    -12.60232587	     -7.49999987	     -0.45828785	     -9.92111317	     -3.80541571	      2.03205921	      0.03546612	     -0.71045517	      1.13590250	     -7.49999987	     -3.37148571	      0.17800526	      2.23531150	      7.98000668	     -2.82406540	      3.80542360	     33.14647267	     79.24438085	     11.87906164	     -5.40820487	     -6.85336832	     21.96536044	     67.45942105
      5.57627120	     -0.34221985	     -0.17346875	     -0.79957460	      0.33184173	      0.94609545	      0.00528788	     -3.67063036	     -7.51270061	     -7.60063399	      3.40264847	      0.05938742	      1.43035862	    -12.60061241	     -7.49999987	     -0.65284927	     -9.97063851	     -3.84314450	      2.04322204	      0.03566095	     -0.59117392	      1.05531428	     -7.49999987	     -3.50153460	      0.19080883	      2.12785411	      7.06850252	     -2.93690496	      3.82697413	     32.83922666	     79.27050631	     11.29546459	     -5.35477809	     -6.81749198	     21.85682171	     67.48707636
      5.59322030	     -0.29589317	     -0.14562636	     -0.99624201	      0.33574394	      0.94929040	      0.00121530	     -3.80043401	     -7.62525583	     -7.48622599	      3.40253804	      0.05938549	      1.46024624	    -12.52453869	     -7.49999987	     -0.96242836	     -9.88924936	     -3.96665588	      1.87626312	      0.03274697	     -0.44169036	      0.95937535	     -7.49999987	     -3.44630648	      0.24174115	      2.10328342	      6.03419119	     -3.32108723	      3.76350526	     32.32789395	     79.32688097	     10.42808687	     -5.17500490	     -6.71801497	     21.80512007	     67.57054632
      5.61016950	     -0.24160852	     -0.19995842	     -1.24088440	      0.33181047	      0.94653341	      0.00574035	     -3.85915690	     -7.55772600	     -7.23085141	      3.40880506	      0.05949487	      1.62224732	    -12.39537340	     -7.49999987	     -1.24558724	     -9.94440404	     -4.20218280	      1.74119102	      0.03038952	     -0.34475960	      0.70485784	     -7.49999987	     -3.47555861	      0.26355534	      2.35408674	      5.32702392	     -3.48240785	      3.56994370	     31.28161058	     79.56567636	      9.70080142	     -5.07783186	     -6.47160417	     22.02112396	     67.91198116
      5.62711860	     -0.09337658	     -0.17717625	     -1.33945563	      0.33554100	      0.94682456	      0.00193039	     -4.12894711	     -7.62177401	     -7.14117863	      3.38053369	      0.05900144	      1.72625562	    -12.20382969	     -7.49999987	     -1.61345297	     -9.86328814	     -4.32718049	      1.63895428	      0.02860515	     -0.26854868	      0.61051214	     -7.49999987	     -3.48470125	      0.27088722	      2.28959070	      4.65354932	     -3.59434065	      3.44803523	     30.08538717	     79.99385272	      8.91956974	     -5.01327836	     -6.29291750	     21.70855546	     68.43515689
      5.64406780	      0.00743686	     -0.16521562	     -1.38229794	      0.33564641	      0.94685137	      0.00126419	     -4.37091849	     -7.70240321	     -7.10922717	      3.34988183	      0.05846647	      1.88529818	    -11.96163067	     -7.49999987	     -1.89971807	     -9.76733652	     -4.30057659	      1.55874683	      0.02720526	     -0.20460026	      0.27689010	     -7.49999987	     -3.45702854	      0.34968129	      2.28050002	      3.83456731	     -3.57456824	      3.18769889	     29.18625326	     84.37395606	      8.16848597	     -4.83067863	     -6.96993394	     21.14148436	     73.37407213
      5.66101690	      0.19349705	     -0.16214794	     -1.48837592	      0.33546166	      0.94989697	      0.00178972	     -4.66749837	     -7.75906783	     -6.99432373	      3.27804839	      0.05721274	      2.02525604	    -11.66499021	     -7.49999987	     -2.28882705	     -9.67972570	     -4.51636622	      1.43263717	      0.02500424	     -0.16675443	      0.17488211	     -7.49999987	     -3.53931338	      0.37904100	      2.22796073	      3.14059618	     -3.64490085	      4.05285538	     28.04585180	     80.85898455	      7.48627432	     -4.65644921	     -7.35400064	     20.83534987	     71.41111181
      5.67796610	      0.27845913	     -0.15873934	     -1.53327669	      0.33548327	      0.94682915	      0.00095639	     -4.85202572	     -7.82691616	     -6.85758507	      3.22082617	      0.05621402	      1.95252727	    -11.81914470	     -7.49999987	     -2.51131325	     -9.58684749	     -4.50195133	      1.35451454	      0.02364074	     -0.17772029	     -0.15433906	     -7.49999987	     -3.42986189	      0.44247679	      2.24593564	      2.60753519	     -3.92595993	      5.61948536	     26.74351542	     77.91065797	      7.04780788	     -4.41691790	     -7.15528053	     20.03732960	     69.97171468
      5.69491530	      0.59224528	     -0.24017318	     -1.67068518	      0.33517139	      0.94716847	      0.00189305	     -5.26373230	     -7.75774395	     -6.81603959	      3.08485366	      0.05384085	      2.01289951	    -11.50314447	     -7.49999987	     -3.00715843	     -9.62316545	     -4.94785944	      1.23114728	      0.02148757	      0.14445745	      0.32143177	     -7.49999987	     -3.82849661	      0.57087564	      2.30415403	      2.12074729	     -3.99935432	      5.50755295	     25.79964428	     75.34974879	      6.24503502	     -4.24153243	     -7.54234359	     20.93339888	     68.53872057
